HIERARCHY
ROOT hip
{
  OFFSET 0.00112043 5.09927 -9.65472
  CHANNELS 6 Xposition Yposition Zposition Zrotation Xrotation Yrotation
  JOINT abdomen
  {
    OFFSET 0 -1.186 -1.5018
    CHANNELS 3 Zrotation Xrotation Yrotation
    JOINT abdomen2
    {
      OFFSET 0 9.964 0.2134
      CHANNELS 3 Zrotation Xrotation Yrotation
      JOINT chest
      {
        OFFSET 0 13.134 -3.2573
        CHANNELS 3 Zrotation Xrotation Yrotation
        JOINT neck
        {
          OFFSET 0 20.686 -1.6905
          CHANNELS 3 Zrotation Xrotation Yrotation
          JOINT head
          {
            OFFSET 0 7.238 -0.1237
            CHANNELS 3 Zrotation Xrotation Yrotation
            End Site
            {
              OFFSET 0 0 0
            }
          }
        }
        JOINT lCollar
        {
          OFFSET 1.7069 20.075 5.0056
          CHANNELS 3 Zrotation Xrotation Yrotation
          JOINT lShldr
          {
            OFFSET 13.6458 -0.047 -4.849
            CHANNELS 3 Zrotation Xrotation Yrotation
            JOINT lForeArm
            {
              OFFSET 28.3255 -0.9759 2.2888
              CHANNELS 3 Zrotation Xrotation Yrotation
              JOINT lHand
              {
                OFFSET 22.1583 -0.53 10.8316
                CHANNELS 3 Zrotation Xrotation Yrotation
                JOINT lThumb1
                {
                  OFFSET 0.786 0.112 2.5817
                  CHANNELS 3 Zrotation Xrotation Yrotation
                  JOINT lThumb2
                  {
                    OFFSET 0.3601 -0.878 4.2331
                    CHANNELS 3 Zrotation Xrotation Yrotation
                    JOINT lThumb2_End
                    {
                      OFFSET 1.8127 -1.216 2.2227
                      CHANNELS 3 Zrotation Xrotation Yrotation
                      End Site
                      {
                        OFFSET 0.0181 -0.0122 0.0222
                      }
                    }
                  }
                }
                JOINT lCarpal1
                {
                  OFFSET 0.9571 1.114 1.7695
                  CHANNELS 3 Zrotation Xrotation Yrotation
                  JOINT lIndex1
                  {
                    OFFSET 4.1246 0.487 4.1451
                    CHANNELS 3 Zrotation Xrotation Yrotation
                    JOINT lIndex2
                    {
                      OFFSET 3.4052 -1.454 2.7682
                      CHANNELS 3 Zrotation Xrotation Yrotation
                      JOINT lIndex2_End
                      {
                        OFFSET 1.4531 -1.795 1.2713
                        CHANNELS 3 Zrotation Xrotation Yrotation
                        End Site
                        {
                          OFFSET 0.0145 -0.0179 0.0127
                        }
                      }
                    }
                  }
                  JOINT lMid1
                  {
                    OFFSET 5.6954 0.21 2.1184
                    CHANNELS 3 Zrotation Xrotation Yrotation
                    JOINT lMid2
                    {
                      OFFSET 3.9766 -1.54 2.3863
                      CHANNELS 3 Zrotation Xrotation Yrotation
                      JOINT lMid2_End
                      {
                        OFFSET 1.4042 -1.926 1.125
                        CHANNELS 3 Zrotation Xrotation Yrotation
                        End Site
                        {
                          OFFSET 0.014 -0.0193 0.0113
                        }
                      }
                    }
                  }
                }
                JOINT lCarpal2
                {
                  OFFSET 2.0956 0.66 -0.3894
                  CHANNELS 3 Zrotation Xrotation Yrotation
                  JOINT lRing1
                  {
                    OFFSET 5.0395 -0.09 2.4971
                    CHANNELS 3 Zrotation Xrotation Yrotation
                    JOINT lRing2
                    {
                      OFFSET 3.7921 -1.552 1.4806
                      CHANNELS 3 Zrotation Xrotation Yrotation
                      JOINT lRing2_End
                      {
                        OFFSET 1.4655 -1.808 0.9609
                        CHANNELS 3 Zrotation Xrotation Yrotation
                        End Site
                        {
                          OFFSET 0.0147 -0.0181 0.0096
                        }
                      }
                    }
                  }
                  JOINT lPinky1
                  {
                    OFFSET 4.9141 -1.269 0.3591
                    CHANNELS 3 Zrotation Xrotation Yrotation
                    JOINT lPinky2
                    {
                      OFFSET 3.1477 -1.685 0.8462
                      CHANNELS 3 Zrotation Xrotation Yrotation
                      JOINT lPinky2_End
                      {
                        OFFSET 0.8055 -1.585 0.7955
                        CHANNELS 3 Zrotation Xrotation Yrotation
                        End Site
                        {
                          OFFSET 0.0081 -0.0158 0.008
                        }
                      }
                    }
                  }
                }
              }
            }
          }
        }
        JOINT rCollar
        {
          OFFSET -1.7069 20.075 5.0056
          CHANNELS 3 Zrotation Xrotation Yrotation
          JOINT rShldr
          {
            OFFSET -13.6458 -0.047 -4.849
            CHANNELS 3 Zrotation Xrotation Yrotation
            JOINT rForeArm
            {
              OFFSET -28.3255 -0.9759 2.2888
              CHANNELS 3 Zrotation Xrotation Yrotation
              JOINT rHand
              {
                OFFSET -22.1583 -0.53 10.8316
                CHANNELS 3 Zrotation Xrotation Yrotation
                JOINT rThumb1
                {
                  OFFSET -0.786 0.112 2.5817
                  CHANNELS 3 Zrotation Xrotation Yrotation
                  JOINT rThumb2
                  {
                    OFFSET -0.3601 -0.878 4.2331
                    CHANNELS 3 Zrotation Xrotation Yrotation
                    JOINT rThumb2_End
                    {
                      OFFSET -1.8127 -1.216 2.2227
                      CHANNELS 3 Zrotation Xrotation Yrotation
                      End Site
                      {
                        OFFSET -0.0181 -0.0122 0.0222
                      }
                    }
                  }
                }
                JOINT rCarpal1
                {
                  OFFSET -0.9571 1.114 1.7695
                  CHANNELS 3 Zrotation Xrotation Yrotation
                  JOINT rIndex1
                  {
                    OFFSET -4.1246 0.487 4.1451
                    CHANNELS 3 Zrotation Xrotation Yrotation
                    JOINT rIndex2
                    {
                      OFFSET -3.4052 -1.454 2.7682
                      CHANNELS 3 Zrotation Xrotation Yrotation
                      JOINT rIndex2_End
                      {
                        OFFSET -1.4531 -1.795 1.2713
                        CHANNELS 3 Zrotation Xrotation Yrotation
                        End Site
                        {
                          OFFSET -0.0145 -0.018 0.0127
                        }
                      }
                    }
                  }
                  JOINT rMid1
                  {
                    OFFSET -5.6954 0.21 2.1184
                    CHANNELS 3 Zrotation Xrotation Yrotation
                    JOINT rMid2
                    {
                      OFFSET -3.9766 -1.54 2.3863
                      CHANNELS 3 Zrotation Xrotation Yrotation
                      JOINT rMid2_End
                      {
                        OFFSET -1.4042 -1.926 1.125
                        CHANNELS 3 Zrotation Xrotation Yrotation
                        End Site
                        {
                          OFFSET -0.014 -0.0193 0.0113
                        }
                      }
                    }
                  }
                }
                JOINT rCarpal2
                {
                  OFFSET -2.0956 0.66 -0.3894
                  CHANNELS 3 Zrotation Xrotation Yrotation
                  JOINT rRing1
                  {
                    OFFSET -5.0395 -0.09 2.4971
                    CHANNELS 3 Zrotation Xrotation Yrotation
                    JOINT rRing2
                    {
                      OFFSET -3.7921 -1.552 1.4806
                      CHANNELS 3 Zrotation Xrotation Yrotation
                      JOINT rRing2_End
                      {
                        OFFSET -1.4655 -1.808 0.9609
                        CHANNELS 3 Zrotation Xrotation Yrotation
                        End Site
                        {
                          OFFSET -0.0147 -0.0181 0.0096
                        }
                      }
                    }
                  }
                  JOINT rPinky1
                  {
                    OFFSET -4.9141 -1.269 0.3592
                    CHANNELS 3 Zrotation Xrotation Yrotation
                    JOINT rPinky2
                    {
                      OFFSET -3.1477 -1.685 0.8462
                      CHANNELS 3 Zrotation Xrotation Yrotation
                      JOINT rPinky2_End
                      {
                        OFFSET -0.8055 -1.585 0.7955
                        CHANNELS 3 Zrotation Xrotation Yrotation
                        End Site
                        {
                          OFFSET -0.0081 -0.0158 0.008
                        }
                      }
                    }
                  }
                }
              }
            }
          }
        }
      }
    }
  }
  JOINT lThigh
  {
    OFFSET 8.367 -8.2066 0.5982
    CHANNELS 3 Zrotation Xrotation Yrotation
    JOINT lShin
    {
      OFFSET 2.1923 -43.463 -0.4932
      CHANNELS 3 Zrotation Xrotation Yrotation
      JOINT lFoot
      {
        OFFSET 0.7333 -45.8593 -2.6451
        CHANNELS 3 Zrotation Xrotation Yrotation
        End Site
        {
          OFFSET 2.6618 -4.2699 12.3931
        }
      }
    }
  }
  JOINT rThigh
  {
    OFFSET -8.367 -8.2066 0.5982
    CHANNELS 3 Zrotation Xrotation Yrotation
    JOINT rShin
    {
      OFFSET -2.1923 -43.463 -0.4931
      CHANNELS 3 Zrotation Xrotation Yrotation
      JOINT rFoot
      {
        OFFSET -0.7333 -45.8593 -2.6451
        CHANNELS 3 Zrotation Xrotation Yrotation
        End Site
        {
          OFFSET -2.6618 -4.2699 12.3931
        }
      }
    }
  }
}
MOTION
Frames:	6
Frame Time:	0.0333333
-1.84254 81.3175 25.018 -2.66596e-015 31.8012 180 -0.614132 5.53628 -0.21427 -1.21593 11.0745 -0.371204 -1.21593 11.0745 -0.371204 12.019 3.40149 -18.727 11.4249 -36.7468 7.18828 -21.9874 -16.0496 -35.255 -7.17665 -22.9046 -12.6338 -15.0293 5.4601 -12.1496 -57.0826 9.44546 12.4333 -1.00103e-006 1.02242e-006 9.3077e-007 -1.00103e-006 1.02242e-006 9.3077e-007 -1.00103e-006 1.02242e-006 9.3077e-007 -6.36111e-015 0 1.59028e-015 -1.00103e-006 1.02242e-006 9.3077e-007 -1.00103e-006 1.02242e-006 9.3077e-007 -1.00103e-006 1.02242e-006 9.3077e-007 -1.00103e-006 1.02242e-006 9.3077e-007 -1.00103e-006 1.02242e-006 9.3077e-007 -1.00103e-006 1.02242e-006 9.3077e-007 -6.36111e-015 0 1.59028e-015 -1.00103e-006 1.02242e-006 9.3077e-007 -1.00103e-006 1.02242e-006 9.3077e-007 -1.00103e-006 1.02242e-006 9.3077e-007 -1.00103e-006 1.02242e-006 9.3077e-007 -1.00103e-006 1.02242e-006 9.3077e-007 -1.00103e-006 1.02242e-006 9.3077e-007 11.5149 -6.93575 5.58065 40.6378 -5.82959 12.6254 30.6752 12.5567 -11.6849 43.3025 12.3483 3.50912 1.45735e-006 5.07172e-007 1.68169e-006 -2.38542e-015 2.54444e-014 -2.38542e-015 -1.23681e-006 -8.86714e-008 -2.38697e-006 -2.78299e-015 -3.18055e-015 -3.18055e-015 1.45735e-006 5.07172e-007 1.68169e-006 2.38542e-015 2.8625e-014 -3.18055e-015 -1.23681e-006 -8.86714e-008 -2.38697e-006 1.45735e-006 5.07172e-007 1.68169e-006 2.38542e-015 2.8625e-014 -3.18055e-015 -1.23681e-006 -8.86714e-008 -2.38697e-006 -2.78299e-015 -3.18055e-015 -3.18055e-015 1.45735e-006 5.07172e-007 1.68169e-006 2.38542e-015 2.8625e-014 -3.18055e-015 -1.23681e-006 -8.86714e-008 -2.38697e-006 1.45735e-006 5.07172e-007 1.68169e-006 2.38542e-015 2.8625e-014 -3.18055e-015 -1.23681e-006 -8.86714e-008 -2.38697e-006 107.914 -20.7833 134.071 -152.748 40.4682 124.306 10.9896 49.7466 19.45 -179.943 -24.6836 172.229 -123.732 43.8636 100.196 -0.460085 6.05408 21.8941 
-1.87587 81.5396 24.999 -2.69981e-015 31.6011 180 -0.614888 5.44607 -0.214681 -1.21748 10.8941 -0.372874 -1.21748 10.8941 -0.372874 12.0356 4.53059 -18.9681 11.3431 -36.5698 7.1234 -22.172 -15.6684 -34.7794 -7.27033 -22.8697 -12.8125 -15.1903 5.56037 -12.4696 -56.7813 9.48505 12.5334 5.00536e-007 -5.1117e-007 -4.65407e-007 1.00107e-006 -1.02234e-006 -9.30815e-007 -1.00107e-006 1.02234e-006 9.30815e-007 -3.18055e-015 -1.59028e-015 3.18055e-015 5.00536e-007 -5.1117e-007 -4.65407e-007 1.00107e-006 -1.02234e-006 -9.30815e-007 -1.00107e-006 1.02234e-006 9.30815e-007 5.00536e-007 -5.1117e-007 -4.65407e-007 1.00107e-006 -1.02234e-006 -9.30815e-007 -1.00107e-006 1.02234e-006 9.30815e-007 -3.18055e-015 -1.59028e-015 3.18055e-015 5.00536e-007 -5.1117e-007 -4.65407e-007 1.00107e-006 -1.02234e-006 -9.30815e-007 -1.00107e-006 1.02234e-006 9.30815e-007 5.00536e-007 -5.1117e-007 -4.65407e-007 1.00107e-006 -1.02234e-006 -9.30815e-007 -1.00107e-006 1.02234e-006 9.30815e-007 12.2705 -6.51566 5.74458 40.3029 -5.92165 12.4659 29.8489 12.4275 -11.7938 43.5944 12.7939 3.51573 1.19271e-015 -3.18055e-015 -0 2.20476e-007 4.18522e-007 -7.05276e-007 3.52035e-007 -2.8211e-006 -1.67409e-006 3.97569e-016 -3.18055e-015 7.95139e-016 -3.18055e-015 0 7.95139e-015 2.20476e-007 4.18522e-007 -7.05276e-007 3.52035e-007 -2.8211e-006 -1.67409e-006 -3.18055e-015 0 7.95139e-015 2.20476e-007 4.18522e-007 -7.05276e-007 3.52035e-007 -2.8211e-006 -1.67409e-006 3.97569e-016 -3.18055e-015 7.95139e-016 -3.18055e-015 0 7.95139e-015 2.20476e-007 4.18522e-007 -7.05276e-007 3.52035e-007 -2.8211e-006 -1.67409e-006 -3.18055e-015 0 7.95139e-015 2.20476e-007 4.18522e-007 -7.05276e-007 3.52035e-007 -2.8211e-006 -1.67409e-006 107.726 -20.7864 133.965 -152.754 40.4605 124.301 11.3088 49.505 19.0626 -179.863 -24.5901 172.292 -123.906 43.7818 100.306 -0.349862 5.80499 21.9176 
-1.90918 81.7617 24.9799 -2.73352e-015 31.401 180 -0.615659 5.3559 -0.215089 -1.21907 10.7138 -0.374542 -1.21907 10.7138 -0.374541 12.0572 5.66087 -19.2103 11.2618 -36.3926 7.05897 -22.3596 -15.2887 -34.3036 -7.36384 -22.8345 -12.991 -15.3508 5.66154 -12.7894 -56.4801 9.52517 12.6333 -5.63267e-007 -7.53757e-008 8.71865e-008 -7.76992e-006 4.58975e-006 -1.16326e-005 5.00574e-007 -5.11111e-007 -4.65433e-007 -3.18055e-015 4.77083e-015 -1.59028e-015 -5.63267e-007 -7.53757e-008 8.71865e-008 -7.76992e-006 4.58975e-006 -1.16326e-005 5.00574e-007 -5.11111e-007 -4.65433e-007 -5.63267e-007 -7.53757e-008 8.71865e-008 -7.76992e-006 4.58975e-006 -1.16326e-005 5.00574e-007 -5.11111e-007 -4.65433e-007 -3.18055e-015 4.77083e-015 -1.59028e-015 -5.63267e-007 -7.53757e-008 8.71865e-008 -7.76992e-006 4.58975e-006 -1.16326e-005 5.00574e-007 -5.11111e-007 -4.65433e-007 -5.63267e-007 -7.53757e-008 8.71865e-008 -7.76992e-006 4.58975e-006 -1.16326e-005 5.00574e-007 -5.11111e-007 -4.65433e-007 13.024 -6.0936 5.90277 39.9677 -6.01278 12.3058 29.0231 12.2999 -11.9045 43.8869 13.2395 3.51999 -2.38542e-015 -3.18055e-015 -2.38542e-015 3.97569e-016 0 -0 3.97569e-016 -3.18055e-015 2.38542e-015 -2.38542e-015 -3.18055e-015 -2.38542e-015 -7.15625e-015 0 5.56597e-015 -1.19271e-015 0 -2.38542e-015 2.78299e-015 3.18055e-015 7.95139e-016 -7.15625e-015 0 5.56597e-015 -1.19271e-015 0 -2.38542e-015 2.78299e-015 3.18055e-015 7.95139e-016 -2.38542e-015 -3.18055e-015 -2.38542e-015 -7.15625e-015 0 5.56597e-015 -1.19271e-015 0 -2.38542e-015 2.78299e-015 3.18055e-015 7.95139e-016 -7.15625e-015 0 5.56597e-015 -1.19271e-015 0 -2.38542e-015 2.78299e-015 3.18055e-015 7.95139e-016 107.539 -20.7891 133.858 -152.76 40.4529 124.296 11.6241 49.2621 18.679 -179.783 -24.4964 172.356 -124.08 43.6999 100.415 -0.239575 5.55586 21.9415 
-1.94247 81.9839 24.9606 -2.76708e-015 31.2009 180 -0.616444 5.26572 -0.215496 -1.22069 10.5334 -0.376205 -1.22069 10.5334 -0.376205 12.0836 6.79206 -19.4537 11.1809 -36.2153 6.99496 -22.55 -14.9107 -33.8274 -7.45724 -22.7991 -13.1695 -15.5107 5.76359 -13.1089 -56.1789 9.56579 12.733 1.00125e-006 -1.02207e-006 -9.30925e-007 5.00627e-007 -5.11035e-007 -4.65462e-007 -5.00627e-007 5.11035e-007 4.65462e-007 -4.41391e-032 1.59028e-015 1.59028e-015 1.00125e-006 -1.02207e-006 -9.30925e-007 5.00627e-007 -5.11035e-007 -4.65462e-007 -5.00627e-007 5.11035e-007 4.65463e-007 1.00125e-006 -1.02207e-006 -9.30925e-007 5.00627e-007 -5.11035e-007 -4.65462e-007 -5.00627e-007 5.11035e-007 4.65463e-007 -4.41391e-032 1.59028e-015 1.59028e-015 1.00125e-006 -1.02207e-006 -9.30925e-007 5.00627e-007 -5.11035e-007 -4.65462e-007 -5.00627e-007 5.11035e-007 4.65463e-007 1.00125e-006 -1.02207e-006 -9.30925e-007 5.00627e-007 -5.11035e-007 -4.65462e-007 -5.00627e-007 5.11035e-007 4.65463e-007 13.7755 -5.66964 6.05518 39.6323 -6.10297 12.1452 28.1976 12.1738 -12.017 44.1798 13.685 3.52194 3.97569e-016 -9.54166e-015 -1.59028e-015 3.97569e-016 -3.18055e-015 1.59028e-015 5.27625e-007 -2.11594e-006 -1.74239e-007 7.95139e-016 -9.54166e-015 -2.38542e-015 -5.1684e-015 0 3.97569e-015 7.95139e-016 -3.18055e-015 3.18055e-015 5.27625e-007 -2.11594e-006 -1.74239e-007 -5.1684e-015 0 3.97569e-015 7.95139e-016 -3.18055e-015 3.18055e-015 5.27625e-007 -2.11594e-006 -1.74239e-007 7.95139e-016 -9.54166e-015 -2.38542e-015 -5.1684e-015 0 3.97569e-015 7.95139e-016 -3.18055e-015 3.18055e-015 5.27625e-007 -2.11594e-006 -1.74239e-007 -5.1684e-015 0 3.97569e-015 7.95139e-016 -3.18055e-015 3.18055e-015 5.27625e-007 -2.11594e-006 -1.74239e-007 107.351 -20.7915 133.752 -152.766 40.4452 124.291 11.9357 49.0178 18.299 -179.703 -24.4026 172.419 -124.253 43.6175 100.524 -0.129282 5.30673 21.9659 
-1.97574 82.2062 24.9413 -2.80051e-015 31.0008 180 -0.617012 5.17556 -0.215899 -1.22188 10.3531 -0.377885 -1.22187 10.3531 -0.377885 12.1151 7.92397 -19.6983 11.1003 -36.0378 6.93138 -22.7433 -14.5343 -33.3508 -7.55049 -22.7634 -13.3478 -15.67 5.86653 -13.4282 -55.8778 9.60691 12.8326 3.18055e-015 -1.59028e-015 4.77083e-015 -5.00693e-007 5.10948e-007 4.6549e-007 -6.36111e-015 -3.18055e-015 -3.18055e-015 -0 -3.18055e-015 -0 3.18055e-015 -9.54166e-015 6.36111e-015 -5.00693e-007 5.10948e-007 4.6549e-007 -1.10348e-030 -7.95139e-015 -7.95139e-015 3.18055e-015 -9.54166e-015 6.36111e-015 -5.00693e-007 5.10948e-007 4.6549e-007 -1.10348e-030 -7.95139e-015 -7.95139e-015 -0 -3.18055e-015 -0 3.18055e-015 -9.54166e-015 6.36111e-015 -5.00693e-007 5.10948e-007 4.6549e-007 -1.10348e-030 -7.95139e-015 -7.95139e-015 3.18055e-015 -9.54166e-015 6.36111e-015 -5.00693e-007 5.10948e-007 4.6549e-007 -1.10348e-030 -7.95139e-015 -7.95139e-015 14.5251 -5.24394 6.20184 39.2965 -6.1922 11.984 27.3726 12.0494 -12.1312 44.4732 14.1305 3.52154 7.95139e-016 -3.18055e-015 3.97569e-015 -1.19271e-015 -3.18055e-015 -7.95139e-016 -2.20211e-007 -4.18606e-007 7.05229e-007 1.19271e-015 -3.18055e-015 3.18055e-015 -3.97569e-016 0 6.36111e-015 -7.95139e-016 0 7.95139e-016 -2.20211e-007 -4.18606e-007 7.05229e-007 -3.97569e-016 0 6.36111e-015 -7.95139e-016 0 7.95139e-016 -2.20211e-007 -4.18606e-007 7.05229e-007 1.19271e-015 -3.18055e-015 3.18055e-015 -3.97569e-016 0 6.36111e-015 -7.95139e-016 0 7.95139e-016 -2.20211e-007 -4.18606e-007 7.05229e-007 -3.97569e-016 0 6.36111e-015 -7.95139e-016 0 7.95139e-016 -2.20211e-007 -4.18606e-007 7.05229e-007 107.163 -20.7936 133.645 -152.772 40.4376 124.285 12.2434 48.7721 17.9226 -179.623 -24.3087 172.482 -124.426 43.5349 100.632 -0.0189736 5.05758 21.9906 
-2.00898 82.4285 24.9219 -2.83379e-015 30.8008 180 -0.617533 5.0854 -0.216302 -1.22297 10.1728 -0.379569 -1.22297 10.1728 -0.379569 12.1516 9.05638 -19.9445 11.0202 -35.8601 6.86822 -22.9394 -14.1596 -32.8739 -7.64358 -22.7275 -13.5261 -15.8288 5.97035 -13.7473 -55.5767 9.64854 12.9319 -3.72415e-006 1.75758e-007 -4.0062e-006 -5.00774e-007 5.10846e-007 4.65519e-007 -3.72415e-006 1.75758e-007 -4.0062e-006 6.36111e-015 -1.27222e-014 -1.59028e-015 -3.72415e-006 1.75758e-007 -4.0062e-006 -5.00774e-007 5.10846e-007 4.65519e-007 -3.72415e-006 1.75758e-007 -4.0062e-006 -3.72415e-006 1.75758e-007 -4.0062e-006 -5.00774e-007 5.10846e-007 4.65519e-007 -3.72415e-006 1.75758e-007 -4.0062e-006 6.36111e-015 -1.27222e-014 -1.59028e-015 -3.72415e-006 1.75758e-007 -4.0062e-006 -5.00774e-007 5.10846e-007 4.65519e-007 -3.72415e-006 1.75758e-007 -4.0062e-006 -3.72415e-006 1.75758e-007 -4.0062e-006 -5.00774e-007 5.10846e-007 4.65519e-007 -3.72415e-006 1.75758e-007 -4.0062e-006 15.2726 -4.81657 6.3427 38.9605 -6.2805 11.8223 26.5483 11.9267 -12.2471 44.7671 14.5759 3.51878 3.97569e-015 0 -3.18055e-015 2.78299e-015 6.36111e-015 3.97569e-015 4.37326e-015 -3.18055e-015 7.95139e-015 4.37326e-015 0 -3.18055e-015 3.97569e-015 6.36111e-015 7.15625e-015 -3.18055e-015 -6.36111e-015 -3.97569e-015 1.19271e-015 -3.18055e-015 -0 3.97569e-015 6.36111e-015 7.15625e-015 -3.18055e-015 -6.36111e-015 -3.97569e-015 1.19271e-015 -3.18055e-015 -0 4.37326e-015 0 -3.18055e-015 3.97569e-015 6.36111e-015 7.15625e-015 -3.18055e-015 -6.36111e-015 -3.97569e-015 1.19271e-015 -3.18055e-015 -0 3.97569e-015 6.36111e-015 7.15625e-015 -3.18055e-015 -6.36111e-015 -3.97569e-015 1.19271e-015 -3.18055e-015 -0 106.975 -20.7955 133.538 -152.778 40.43 124.28 12.5513 48.5253 17.5492 -179.543 -24.2147 172.545 -124.598 43.452 100.74 0.0913574 4.80847 22.0159 
